# xmcd CD database file
#
# Track frame offsets:
#	150
#	23925
#	44475
#	68250
#
# Disc length: 1179 seconds
#
# Revision: 0
# Processed by: cddbd v1.5PL3 Copyright (c) Steve Scherf et al.
# Submitted via: CDex 1.51
#
DISCID=2a049904
DTITLE=野猿 - SNOW BLIND
DYEAR=1998
DGENRE=JPop
TTITLE0=SNOW BLIND
TTITLE1=CHASER
TTITLE2=SNOW BLIND(オリジナル・カラオケ)
TTITLE3=CHASER(オリジナル・カラオケ)
EXTD=YEAR: 1998
EXTT0=
EXTT1=
EXTT2=
EXTT3=
PLAYORDER=
